# xmcd CD database file
# Copyright (C) 1997 Ti Kan
# 
# Track frame offsets:
#     200
#     12920
#     26810
#     39225
#     51807
#     66105
#     78935
#     93315
#     105157
#     117255
#     128167
#     138855
#     150625
#     159990
# 
# Disc length: 2273 seconds
# 
# Revision: 1
# Processed by: cddbd v1.4b41PL1 Copyright (c) Steve Scherf et al.
# Submitted via: DiscPlay 4.0.4
# 
DISCID=a008df0e
DTITLE=Ray Charles - Time For The Blues
DYEAR=1900
DGENRE=
TTITLE0=Going Down Slowly
TTITLE1=Baby Let Me Hold Your Hand
TTITLE2=I Will Not Let You Go
TTITLE3=I'm Glad For Your Sake
TTITLE4=Walkin' And Talkin'
TTITLE5=Snow Is Falling
TTITLE6=Blues Is My Middle Name
TTITLE7=If I Give My Love
TTITLE8=Cee Cee River
TTITLE9=I Wonder Who's Kissing Her Know
TTITLE10=Hey Now
TTITLE11=Tell Me Baby
TTITLE12=All To Myself
TTITLE13=Sittin' On Top Of The World
EXTD=
EXTT0=
EXTT1=
EXTT2=
EXTT3=
EXTT4=
EXTT5=
EXTT6=
EXTT7=
EXTT8=
EXTT9=
EXTT10=
EXTT11=
EXTT12=
EXTT13=
PLAYORDER=
